<?xml version="1.0" encoding="utf-8"?>
<!-- Generator: Adobe Illustrator 27.6.1, SVG Export Plug-In . SVG Version: 6.00 Build 0)  -->
<svg version="1.1" id="Layer_1" xmlns="http://www.w3.org/2000/svg" xmlns:xlink="http://www.w3.org/1999/xlink" x="0px" y="0px"
	 viewBox="0 0 1323.3 465.6" style="enable-background:new 0 0 1323.3 465.6;" xml:space="preserve">
<style type="text/css">
	.st0{display:none;fill:#1E3B70;}
	.st1{fill:#231F20;}
	.st2{clip-path:url(#SVGID_00000029742400902478847480000007755782718397852803_);fill:#231F20;}
	.st3{fill:#002D72;}
	.st4{fill:#044C7D;}
	.st5{clip-path:url(#SVGID_00000093174929783877747200000017030816253112575389_);fill:#002D72;}
	.st6{clip-path:url(#SVGID_00000074416521117433864520000002221699054470194599_);fill:#FFFFFF;}
	.st7{fill:#FFFFFF;}
	.st8{clip-path:url(#SVGID_00000114057834617026882240000014569855629655247762_);fill:#FFFFFF;}
	.st9{clip-path:url(#SVGID_00000164484371251641214630000009574104947842429581_);fill:#231F20;}
	.st10{clip-path:url(#SVGID_00000055681661407299228040000015676211623389731980_);fill:#231F20;}
	.st11{clip-path:url(#SVGID_00000056417037168691301650000012074178929722075278_);fill:#002D72;}
	.st12{clip-path:url(#SVGID_00000142166989598077163920000002387994176366039461_);fill:#FFFFFF;}
</style>
<g>
	<path class="st3" d="M193.5,299.4c5.1-2.8,11.3-6.8,18.1-11.8v-60.8l-18.1-12V299.4L193.5,299.4z"/>
	<path class="st3" d="M193.5,172.7l18.1,12V154c-6-0.3-12-0.4-18.1-0.5V172.7L193.5,172.7z"/>
	<path class="st3" d="M247.7,157.2c-6-0.8-12-1.4-18.1-1.9v41.5l18.1,12V157.2L247.7,157.2z"/>
	<path class="st3" d="M229.7,238.8v33c6.1-6,12.2-13,18.1-21v-0.1L229.7,238.8L229.7,238.8z"/>
	<path class="st4" d="M247.7,250.9C247.7,250.9,247.8,250.9,247.7,250.9L247.7,250.9L247.7,250.9L247.7,250.9z"/>
	<path class="st3" d="M265.8,160v60.9l0.1,0c7.9-16.3,14.2-35.4,17.8-57.5l-0.6-0.1C277.3,162,271.6,160.9,265.8,160"/>
	<polygon class="st3" points="211.6,184.8 211.6,226.8 229.7,238.8 229.7,196.8 211.6,184.8 	"/>
	<path class="st3" d="M247.7,208.8v42.1l0,0c6.5-8.7,12.6-18.7,18-29.9v-0.1L247.7,208.8L247.7,208.8z"/>
	<path class="st4" d="M265.8,220.9C265.8,220.9,265.8,220.9,265.8,220.9v-0.1V220.9L265.8,220.9z"/>
	<path class="st3" d="M153.9,229.5c5.3-1.5,10-4.5,13.6-8.5c-2-0.7-4.3-1.4-6.9-2C158.6,223.4,156.2,226.9,153.9,229.5"/>
	<path class="st3" d="M125.3,221.1c3.6,4,8.3,7,13.6,8.5c-2.2-2.6-4.7-6.1-6.7-10.5C129.5,219.7,127.2,220.4,125.3,221.1"/>
	<path class="st3" d="M143.8,177.3c-2,2.2-4.3,5.2-6.2,9c1.9,0.3,4,0.4,6.2,0.5V177.3L143.8,177.3z"/>
	<path class="st3" d="M162.4,214.1c3.3,0.8,6,1.7,8.3,2.6c2.1-3.5,3.5-7.6,3.9-11.9h-10.5C163.9,208.2,163.3,211.3,162.4,214.1"/>
	<path class="st3" d="M138.9,174.9c-5.3,1.5-10,4.5-13.6,8.5c2,0.7,4.3,1.4,6.9,2C134.2,181,136.6,177.5,138.9,174.9"/>
	<path class="st3" d="M167.5,183.4c-3.6-4-8.3-7-13.6-8.5c2.2,2.6,4.7,6.1,6.7,10.5C163.3,184.8,165.6,184.1,167.5,183.4"/>
	<path class="st3" d="M164.1,199.6h10.5c-0.4-4.3-1.8-8.3-3.9-11.9c-2.3,0.9-5,1.8-8.3,2.6C163.3,193.1,163.9,196.2,164.1,199.6"/>
	<path class="st3" d="M149,227.2c2-2.2,4.3-5.2,6.2-9.1c-1.9-0.3-4-0.4-6.2-0.5V227.2L149,227.2z"/>
	<path class="st3" d="M143.8,204.8h-9.9c0.2,3,0.8,5.8,1.6,8.3c2.5-0.4,5.3-0.6,8.2-0.8V204.8L143.8,204.8z"/>
	<path class="st3" d="M149,212.4c3,0.1,5.7,0.4,8.2,0.7c0.8-2.5,1.4-5.3,1.6-8.3H149V212.4L149,212.4z"/>
	<path class="st3" d="M155.2,186.3c-1.9-3.9-4.3-6.9-6.2-9.1v9.6C151.2,186.8,153.3,186.6,155.2,186.3"/>
	<path class="st3" d="M158.9,199.6c-0.2-3-0.8-5.8-1.6-8.3c-2.5,0.4-5.3,0.6-8.3,0.8v7.6H158.9L158.9,199.6z"/>
	<path class="st3" d="M137.6,218.1c1.9,3.8,4.2,6.9,6.2,9v-9.6C141.6,217.7,139.5,217.9,137.6,218.1"/>
	<path class="st3" d="M130.4,190.3c-3.3-0.8-6-1.7-8.3-2.6c-2.1,3.5-3.5,7.6-3.9,11.9h10.6C128.9,196.2,129.5,193.1,130.4,190.3"/>
	<path class="st3" d="M143.8,192c-2.9-0.1-5.7-0.4-8.2-0.8c-0.8,2.5-1.4,5.3-1.6,8.3h9.9V192L143.8,192z"/>
	<path class="st3" d="M128.7,204.8h-10.6c0.4,4.3,1.8,8.3,3.9,11.9c2.3-0.9,5.1-1.8,8.3-2.6C129.5,211.3,128.9,208.2,128.7,204.8"/>
	<path class="st3" d="M146.4,168.6c18.5,0,33.6,15.1,33.6,33.6c0,18.5-15.1,33.6-33.6,33.6c-18.5,0-33.6-15.1-33.6-33.6
		C112.8,183.7,127.9,168.6,146.4,168.6 M94.9,163.4c13.3,81.9,64.6,121.9,90.1,136V153.5c-30.2,0.3-60.3,3.5-89.5,9.7L94.9,163.4
		L94.9,163.4z"/>
	<path class="st3" d="M261.9,142.6c-23.5-4.5-50.5-5.8-72.6-5.8h0c-22.1,0-49.1,1.4-72.6,5.8c-0.9,0.2-1.7-0.6-1.2-1.6L131,107
		c0.2-0.3,10.1-5.3,10.1-5.3c12.7-2.7,33.6-1.5,48.1,3.9h0.1c14.6-5.4,35.5-6.5,48.1-3.9c0,0,10,4.9,10.1,5.3l15.4,34.1
		C263.5,142,262.8,142.8,261.9,142.6 M283,100.7L283,100.7c-30.3-6.5-61.6-9.9-93.7-9.9c-32.2,0-63.5,3.4-93.7,9.9l-0.1,0
		c-2.1,0.5-3.7,2.5-3.7,4.8l0,16.9c0,11.1,0.7,21.6,1.9,31.6c31.4-6.6,63.6-10,95.8-10c32.1,0,64.3,3.3,95.6,9.9
		c1.2-9.9,1.9-20.4,1.9-31.6l0-16.9C286.9,103.1,285.2,101.2,283,100.7"/>
	<path class="st3" d="M233.4,107.5l6.5,17.4c-15.1-2.1-27.7-1.1-46.2,4.9v1.6c17.5-0.7,39.6-1.6,57.5,2.2l-9.8-22.4L233.4,107.5
		L233.4,107.5z"/>
	<path class="st3" d="M138.4,124.9l6.5-17.4l-8.1,3.7l-9.8,22.4c17.9-3.8,40-2.9,57.5-2.2v-1.6C166.1,123.8,153.6,122.9,138.4,124.9
		"/>
	<path class="st3" d="M467.4,259.4c-0.4-0.4-0.3-1.2,0.2-1.4c1.6,0.1,4.3,0.2,6.2,0.2c1.7,0,4.8-0.1,6.9-0.2c0.5,0.2,0.5,1,0.1,1.4
		l-1.4,0.1c-1.3,0.1-2,0.5-2,1c0,0.7,1.3,3.8,3.1,8.1c3.4,7.5,6.9,15,10.4,22.4c1.4-3,3.1-6.4,4.6-9.7c0.5-1.1,1-2.2,1-2.5
		c0-0.3-0.2-0.8-0.5-1.6c-2.1-4.8-4.3-9.6-6.6-14.4c-0.9-1.9-1.8-3.1-3.9-3.3l-1.4-0.1c-0.4-0.5-0.4-1.2,0.1-1.4
		c1.7,0.1,4,0.2,6.4,0.2c3,0,5.2-0.1,6.6-0.2c0.4,0.2,0.5,1,0.1,1.4l-1.6,0.1c-2.3,0.2-2.4,0.6-1.3,3.3c1.3,2.9,2.9,6.7,4.6,10.5
		c1.1-2.3,2.2-4.6,3.6-7.9c2.2-5.1,1.9-5.8-0.1-5.9l-1.8-0.1c-0.4-0.6-0.3-1.3,0.1-1.4c1.6,0.1,3.4,0.2,5.7,0.2c2,0,4.4-0.1,5.8-0.2
		c0.4,0.2,0.5,1,0.1,1.4l-1.7,0.1c-2.5,0.2-3.6,2.9-4.9,5.4c-1.3,2.2-3.8,7.5-4.7,9.6c-0.3,0.6-0.5,1.2-0.5,1.4
		c0,0.2,0.1,0.7,0.4,1.4c2,4.6,4.1,9.1,6.1,13.7c1.9-4.2,3.7-8.4,5.4-12.7c1.2-2.9,4.4-10.9,4.8-12c0.8-2.2,1.8-4.8,1.8-5.5
		c0-0.8-0.7-1.3-2-1.4l-1.7-0.1c-0.5-0.5-0.4-1.2,0.1-1.4c2.3,0.1,3.9,0.2,5.8,0.2c2.3,0,4-0.1,5.6-0.2c0.5,0.2,0.5,1,0.1,1.4
		l-1.1,0.1c-3,0.3-3.5,2.1-7.2,10.5l-4.4,10.2c-2.6,6.1-5,12-7.5,18.5c-0.2,0.1-0.4,0.2-0.7,0.2c-0.3,0-0.6-0.1-0.8-0.2
		c-1.9-5.4-5.4-12.9-7.3-17.1c-2.2,4.4-5.8,12.1-7.5,17.1c-0.2,0.1-0.4,0.2-0.7,0.2c-0.3,0-0.6-0.1-0.9-0.2c-1-2.5-3.4-7.9-4.2-9.7
		c-3.8-8.4-7.6-16.7-11.5-25.1c-1.1-2.5-1.9-4.1-4.4-4.3L467.4,259.4L467.4,259.4z"/>
	<path class="st3" d="M543.9,278.4c-2.9,0-3,0.1-3,1.9v8.5c0,6.3,0.3,7.2,3.7,7.5l1.7,0.2c0.4,0.2,0.2,1.3-0.1,1.5
		c-3.2-0.1-5.3-0.2-7.6-0.2c-2.6,0-4.6,0.1-7,0.2c-0.4-0.2-0.5-1.1-0.1-1.5l1-0.2c3.4-0.6,3.5-1.2,3.5-7.5v-21.7
		c0-6.3-0.4-7.3-3.5-7.6l-1.6-0.1c-0.4-0.2-0.2-1.3,0.1-1.5c2.9,0.1,5,0.2,7.6,0.2c2.3,0,4.4-0.1,7-0.2c0.4,0.2,0.5,1.3,0.1,1.5
		l-1.1,0.1c-3.5,0.4-3.6,1.3-3.6,7.6v6.9c0,1.9,0.1,1.9,3,1.9h17.2c2.9,0,3-0.1,3-1.9v-6.9c0-6.3-0.1-7.2-3.7-7.6l-1.1-0.1
		c-0.4-0.2-0.2-1.3,0.1-1.5c2.8,0.1,4.8,0.2,7.3,0.2c2.3,0,4.4-0.1,7.1-0.2c0.4,0.2,0.5,1.3,0.1,1.5l-1.3,0.1
		c-3.5,0.4-3.6,1.3-3.6,7.6v21.7c0,6.3,0.1,7.1,3.6,7.5l1.4,0.2c0.4,0.2,0.2,1.3-0.1,1.5c-2.9-0.1-4.9-0.2-7.3-0.2
		c-2.5,0-4.6,0.1-7.3,0.2c-0.4-0.2-0.5-1.1-0.1-1.5l1.1-0.2c3.7-0.6,3.7-1.2,3.7-7.5v-8.5c0-1.8-0.1-1.9-3-1.9H543.9L543.9,278.4z"
		/>
	<path class="st3" d="M587.4,267.3c0-6.4-0.1-7.4-3.7-7.7l-1.5-0.1c-0.4-0.2-0.2-1.3,0.1-1.5c3,0.1,5.1,0.2,7.6,0.2
		c2.4,0,4.5-0.1,7.5-0.2c0.4,0.2,0.5,1.3,0.1,1.5l-1.5,0.1c-3.5,0.3-3.7,1.3-3.7,7.7v21.4c0,6.4,0.1,7.2,3.7,7.6l1.5,0.2
		c0.4,0.2,0.2,1.3-0.1,1.5c-3-0.1-5-0.2-7.5-0.2c-2.5,0-4.6,0.1-7.6,0.2c-0.4-0.2-0.5-1.1-0.1-1.5l1.5-0.2c3.5-0.4,3.7-1.3,3.7-7.6
		V267.3L587.4,267.3z"/>
	<path class="st3" d="M625.2,288.8c0,6.3,0.1,7.2,3.6,7.5l1.9,0.2c0.4,0.2,0.2,1.3-0.1,1.5c-3.4-0.1-5.5-0.2-7.9-0.2
		c-2.4,0-4.5,0.1-8.4,0.2c-0.4-0.2-0.5-1.2,0-1.5l2.2-0.2c3.4-0.3,3.7-1.2,3.7-7.5v-26.9c0-1.9,0-1.9-1.8-1.9h-3.3
		c-2.6,0-5.9,0.1-7.4,1.5c-1.4,1.3-2,2.7-2.7,4.2c-0.5,0.4-1.3,0.1-1.6-0.4c1-2.7,1.9-6.6,2.3-9c0.2-0.1,1-0.2,1.1,0
		c0.4,1.9,2.3,1.9,5.1,1.9h24.4c3.2,0,3.8-0.1,4.7-1.7c0.3-0.1,1-0.1,1.1,0.2c-0.7,2.5-1.1,7.3-0.9,9.1c-0.2,0.5-1.3,0.5-1.6,0.1
		c-0.2-1.5-0.6-3.7-1.5-4.4c-1.4-1-3.7-1.5-7-1.5h-4.3c-1.8,0-1.7,0.1-1.7,2V288.8L625.2,288.8z"/>
	<path class="st3" d="M653.4,267.3c0-6.4-0.1-7.4-3.7-7.7l-1.5-0.1c-0.4-0.2-0.2-1.3,0.1-1.5c3,0.1,5.1,0.2,7.6,0.2
		c2.4,0,4.5-0.1,7.5-0.2c0.4,0.2,0.5,1.3,0.1,1.5l-1.5,0.1c-3.5,0.3-3.7,1.3-3.7,7.7v21.4c0,6.4,0.1,7.2,3.7,7.6l1.5,0.2
		c0.4,0.2,0.2,1.3-0.1,1.5c-3-0.1-5.1-0.2-7.5-0.2c-2.5,0-4.6,0.1-7.6,0.2c-0.4-0.2-0.5-1.1-0.1-1.5l1.5-0.2
		c3.6-0.4,3.7-1.3,3.7-7.6V267.3L653.4,267.3z"/>
	<path class="st3" d="M709.1,287.6c0,1.8,0,9,0.2,10.5c-0.1,0.4-0.5,0.7-1.1,0.7c-0.7-1-2.5-3.1-7.7-9.1l-14-15.9
		c-1.6-1.9-5.7-6.8-7-8.1h-0.1c-0.2,0.7-0.3,2.1-0.3,3.9v13.1c0,2.8,0.1,10.6,1.1,12.4c0.4,0.7,1.6,1,3.1,1.1l1.9,0.2
		c0.4,0.5,0.3,1.2-0.1,1.5c-2.7-0.1-4.8-0.2-7-0.2c-2.5,0-4.1,0.1-6.2,0.2c-0.4-0.3-0.5-1.1-0.1-1.5l1.6-0.2
		c1.4-0.2,2.3-0.5,2.6-1.2c0.8-2.2,0.8-9.5,0.8-12.4v-17.4c0-1.7-0.1-2.9-1.3-4.3c-0.8-0.8-2.3-1.3-3.7-1.4l-1-0.1
		c-0.4-0.4-0.4-1.3,0.1-1.5c2.5,0.2,5.7,0.2,6.8,0.2c1,0,2-0.1,2.8-0.2c1.2,3.1,8.3,11,10.3,13.2l5.8,6.6c4.2,4.6,7.1,8,9.9,10.9
		h0.1c0.2-0.3,0.2-1.3,0.2-2.5v-12.9c0-2.8-0.1-10.6-1.2-12.5c-0.4-0.5-1.3-0.9-3.7-1.2l-1-0.1c-0.4-0.4-0.4-1.3,0.1-1.5
		c2.8,0.1,4.8,0.2,7.1,0.2c2.6,0,4.2-0.1,6.2-0.2c0.5,0.3,0.5,1.1,0.1,1.5l-0.8,0.1c-1.9,0.3-3.1,0.8-3.4,1.3
		c-1,2.2-0.9,9.6-0.9,12.4V287.6L709.1,287.6z"/>
	<path class="st3" d="M756.6,291.7c0,2.4,0.4,3.8,1.4,4.3c0.2,0.2,0.2,0.5-0.1,0.7c-0.7,0-1.8,0.2-2.9,0.5
		c-3.2,0.8-7.5,1.6-10.8,1.6c-7.2,0-13.7-2-18.3-6.7c-3.6-3.6-5.5-8.4-5.5-13.6c0-5.1,1.7-10.3,5.4-14.3c4-4.2,10-7,19.1-7
		c3.4,0,6.6,0.7,7.6,0.9c1.1,0.2,3,0.7,3.7,0.6c0,2,0.4,5.1,0.9,8.7c-0.2,0.5-1.3,0.5-1.6,0.2c-1.7-6.5-6.2-8.5-12.3-8.5
		c-11.7,0-16.8,8.3-16.8,17.3c0,11.5,6,20.6,18,20.6c3.7,0,6-0.8,6.6-1.8c0.3-0.4,0.6-1.5,0.6-3.4v-2.4c0-5.1-0.2-5.4-3.9-5.8
		l-2.7-0.3c-0.5-0.2-0.4-1.3,0-1.5c1.7,0.1,5.1,0.2,8.6,0.2c2.3,0,4.4-0.1,6.4-0.2c0.4,0.2,0.5,1.1,0.1,1.5l-1,0.1
		c-2.5,0.3-2.6,2-2.6,5V291.7L756.6,291.7z"/>
	<path class="st3" d="M797,298.8c-5.1,0-8.2-1.6-9.4-2.2c-0.7-1.3-1.5-5.6-1.6-8.4c0.3-0.4,1.2-0.5,1.4-0.2c0.9,3.1,3.4,9,10.3,9
		c5.1,0,7.5-3.3,7.5-6.9c0-2.6-0.5-5.6-4.9-8.4l-5.7-3.7c-3-2-6.5-5.4-6.5-10.3c0-5.7,4.5-10.4,12.3-10.4c1.9,0,4,0.4,5.6,0.8
		c0.8,0.2,1.6,0.4,2.1,0.4c0.5,1.4,1.1,4.8,1.1,7.3c-0.2,0.4-1.2,0.5-1.5,0.2c-0.8-2.9-2.4-6.8-8.2-6.8c-5.9,0-7.2,3.9-7.2,6.7
		c0,3.5,2.9,6,5.1,7.4l4.8,3c3.8,2.4,7.5,5.8,7.5,11.5C809.8,294.3,804.8,298.8,797,298.8"/>
	<path class="st3" d="M824.7,262.3c4.4-3.4,10-5.1,16.2-5.1c3.2,0,7.8,0.7,10.6,1.4c0.7,0.2,1.1,0.3,1.7,0.2
		c0.1,1.4,0.4,5.2,0.8,8.8c-0.3,0.4-1.2,0.5-1.6,0.1c-0.9-4.1-3.6-8.8-12.3-8.8c-9.2,0-17,5.8-17,18.3c0,12.6,8,19.6,17.9,19.6
		c7.8,0,11.2-5,12.6-8.6c0.4-0.3,1.3-0.2,1.6,0.2c-0.4,3.1-2,7.1-2.9,8.2c-0.7,0.1-1.4,0.4-2.1,0.6c-1.3,0.5-5.7,1.4-9.5,1.4
		c-5.4,0-10.6-1.1-15-4c-4.8-3.3-8.5-8.8-8.5-16.5C817.1,271.5,820.1,265.8,824.7,262.3"/>
	<path class="st3" d="M874.8,278.4c-2.9,0-3,0.1-3,1.9v8.5c0,6.3,0.3,7.2,3.7,7.5l1.7,0.2c0.4,0.2,0.2,1.3-0.1,1.5
		c-3.2-0.1-5.3-0.2-7.6-0.2c-2.6,0-4.6,0.1-7,0.2c-0.4-0.2-0.5-1.1-0.1-1.5l1-0.2c3.4-0.6,3.5-1.2,3.5-7.5v-21.7
		c0-6.3-0.4-7.3-3.5-7.6l-1.6-0.1c-0.4-0.2-0.2-1.3,0.1-1.5c2.9,0.1,5,0.2,7.6,0.2c2.3,0,4.4-0.1,7-0.2c0.4,0.2,0.5,1.3,0.1,1.5
		l-1.1,0.1c-3.5,0.4-3.6,1.3-3.6,7.6v6.9c0,1.9,0.1,1.9,3,1.9H892c2.9,0,3-0.1,3-1.9v-6.9c0-6.3-0.1-7.2-3.7-7.6l-1.1-0.1
		c-0.4-0.2-0.2-1.3,0.1-1.5c2.8,0.1,4.8,0.2,7.3,0.2c2.3,0,4.4-0.1,7.1-0.2c0.4,0.2,0.5,1.3,0.1,1.5l-1.3,0.1
		c-3.5,0.4-3.6,1.3-3.6,7.6v21.7c0,6.3,0.1,7.1,3.6,7.5l1.4,0.2c0.4,0.2,0.2,1.3-0.1,1.5c-2.9-0.1-4.9-0.2-7.3-0.2
		c-2.5,0-4.6,0.1-7.3,0.2c-0.4-0.2-0.5-1.1-0.1-1.5l1.1-0.2c3.7-0.6,3.7-1.2,3.7-7.5v-8.5c0-1.8-0.1-1.9-3-1.9H874.8L874.8,278.4z"
		/>
	<path class="st3" d="M949,279.7c0-9.9-4.4-20.6-15.9-20.6c-6.3,0-14.4,4.3-14.4,17.4c0,8.9,4.3,20.4,16.2,20.4
		C942.1,296.9,949,291.5,949,279.7 M912.7,278.4c0-12,9-21.2,21.4-21.2c13.9,0,20.9,10.1,20.9,20.6c0,12.2-9.3,21-20.9,21
		C920.8,298.8,912.7,289.2,912.7,278.4"/>
	<path class="st3" d="M999.8,279.7c0-9.9-4.4-20.6-15.9-20.6c-6.3,0-14.4,4.3-14.4,17.4c0,8.9,4.3,20.4,16.2,20.4
		C992.9,296.9,999.8,291.5,999.8,279.7 M963.5,278.4c0-12,9-21.2,21.4-21.2c13.9,0,20.9,10.1,20.9,20.6c0,12.2-9.3,21-20.9,21
		C971.6,298.8,963.5,289.2,963.5,278.4"/>
	<path class="st3" d="M1018.8,267.1c0-6.3-0.1-7.3-3.9-7.6l-1.5-0.1c-0.4-0.2-0.2-1.3,0.1-1.5c3.4,0.1,5.4,0.2,7.8,0.2
		c2.3,0,4.4-0.1,7.4-0.2c0.4,0.2,0.5,1.3,0.1,1.5l-1.4,0.1c-3.5,0.3-3.7,1.3-3.7,7.6v20.9c0,3.8,0.2,5.4,1.3,6.5
		c0.7,0.7,1.8,1.4,6.6,1.4c5.1,0,6.4-0.2,7.3-0.8c1.2-0.7,2.8-2.9,4-6c0.4-0.3,1.5-0.1,1.5,0.4c0,0.7-1.7,6.8-2.5,8.4
		c-3.1-0.1-8.8-0.2-15-0.2h-5.5c-2.5,0-4.4,0.1-7.8,0.2c-0.4-0.2-0.5-1.1-0.1-1.5l1.8-0.2c3.5-0.4,3.6-1.2,3.6-7.5V267.1
		L1018.8,267.1z"/>
	<path class="st3" d="M514.8,343.4c-3.5,4.7-5.8,11.8-6,15c-0.1,2.1,0.7,3.8,2.5,3.8c1.3,0,2.8-0.5,4.7-3.1
		c2.6-3.5,5.5-11.5,5.6-14.7c0.1-1.9-0.3-4-2.4-4C517.9,340.5,516.5,341,514.8,343.4 M525.7,346.3c-0.2,3.3-1.9,9.1-6.4,13.7
		c-3.7,3.8-7,4.2-8.6,4.2c-3.8,0-6.4-2.8-6-8c0.2-3.7,2.5-9.6,6.6-13.5c3.1-3,5.8-3.9,8.3-3.9C523.8,338.7,525.9,341.9,525.7,346.3"
		/>
	<path class="st3" d="M543.1,341.7c-0.4,1-0.8,2.9-1.6,5.6c-1.8,6.7-3.4,12.5-5.4,19.1c-1.6,5.4-3.5,8.5-4.7,9.7
		c-0.9,0.8-3.7,3.2-7.2,3.2c-3.2,0-4.4-2-4.4-2.9c0-1.2,0.7-2.2,1.4-2.7c0.5-0.4,1-0.2,1.4,0.2c1.4,1.5,3.2,2.5,4.6,2.5
		c1.2,0,2.5-0.4,3.8-5.1c2.8-9.5,4.9-19.9,7.8-29.6h-5c-0.6-0.5-0.4-1.7,0.4-2.2h5.2c1.6-5.4,3.2-10.1,6.7-14.3c3-3.6,6.1-5,9.6-5
		c2.2,0,4.6,1.6,4.6,4c0,1.6-1.6,3.4-2.6,3.4c-0.5,0-0.8-0.5-0.8-1c-0.2-3.3-1.9-4.4-3.4-4.4c-1.3,0-2.9,1.2-4.3,3.2
		c-2.8,4-4,8.3-5.6,14h7.5c0.4,0.7,0.3,1.6-0.6,2.2H543.1L543.1,341.7z"/>
	<path class="st3" d="M578.2,332.5c0-6.3-0.1-7.2-3.7-7.6l-1-0.1c-0.4-0.2-0.2-1.3,0.1-1.5c2.6,0.1,4.6,0.2,7.1,0.2h11.3
		c3.8,0,7.4,0,8.1-0.2c0.4,1,0.7,5.4,1,8c-0.2,0.4-1.2,0.5-1.5,0.1c-0.9-2.8-1.4-4.9-4.6-5.7c-1.3-0.3-3.2-0.4-5.8-0.4H585
		c-1.8,0-1.8,0.1-1.8,2.4v12c0,1.7,0.2,1.7,2,1.7h3.5c2.5,0,4.4-0.1,5.1-0.4c0.7-0.2,1.1-0.6,1.4-2.1l0.5-2.5
		c0.3-0.4,1.3-0.4,1.6,0.1c0,1.4-0.2,3.8-0.2,6.1c0,2.2,0.2,4.5,0.2,5.8c-0.2,0.4-1.3,0.4-1.6,0.1l-0.5-2.3c-0.2-1.1-0.7-2-1.9-2.3
		c-0.8-0.2-2.3-0.3-4.6-0.3h-3.5c-1.8,0-2,0.1-2,1.6v8.5c0,3.2,0.2,5.2,1.1,6.2c0.7,0.7,2,1.4,7.3,1.4c4.6,0,6.4-0.2,7.7-0.9
		c1.1-0.6,2.7-2.7,4.3-5.8c0.4-0.3,1.3-0.1,1.5,0.4c-0.4,2.1-1.9,6.7-2.7,8.4c-5.4-0.1-10.8-0.2-16.1-0.2h-5.4
		c-2.6,0-4.6,0.1-8.2,0.2c-0.4-0.2-0.5-1.1-0.1-1.5l2-0.2c3.4-0.3,3.7-1.2,3.7-7.5V332.5L578.2,332.5z"/>
	<path class="st3" d="M648.7,353c0,1.8,0,9,0.2,10.5c-0.1,0.4-0.5,0.7-1.1,0.7c-0.7-1-2.5-3.1-7.7-9.1l-13.9-15.9
		c-1.6-1.9-5.7-6.8-7-8.1H619c-0.2,0.7-0.3,2.1-0.3,3.9v13.1c0,2.8,0.1,10.6,1.1,12.5c0.4,0.7,1.6,1,3.1,1.1l1.9,0.2
		c0.4,0.5,0.3,1.2-0.1,1.5c-2.7-0.1-4.8-0.2-7-0.2c-2.5,0-4.2,0.1-6.3,0.2c-0.4-0.3-0.5-1.1-0.1-1.5l1.6-0.2
		c1.4-0.2,2.3-0.5,2.6-1.2c0.8-2.2,0.8-9.5,0.8-12.4v-17.4c0-1.7-0.1-2.9-1.3-4.3c-0.8-0.8-2.3-1.3-3.7-1.4l-1-0.1
		c-0.4-0.4-0.4-1.3,0.1-1.5c2.5,0.2,5.7,0.2,6.8,0.2c1,0,2-0.1,2.8-0.2c1.2,3.1,8.3,11,10.3,13.2l5.8,6.6c4.2,4.6,7.1,8,9.9,10.9
		h0.1c0.2-0.3,0.2-1.3,0.2-2.5v-12.9c0-2.8-0.1-10.6-1.2-12.4c-0.4-0.5-1.3-0.9-3.7-1.2l-1-0.1c-0.4-0.4-0.4-1.3,0.1-1.5
		c2.8,0.1,4.8,0.2,7.1,0.2c2.6,0,4.1-0.1,6.2-0.2c0.5,0.3,0.5,1.1,0.1,1.5L653,325c-1.9,0.3-3.1,0.8-3.4,1.3
		c-1,2.2-0.9,9.6-0.9,12.4V353L648.7,353z"/>
	<path class="st3" d="M694.6,357.1c0,2.4,0.4,3.9,1.4,4.3c0.2,0.2,0.2,0.5-0.1,0.7c-0.7,0-1.8,0.2-2.9,0.5
		c-3.2,0.8-7.5,1.6-10.8,1.6c-7.2,0-13.7-2-18.3-6.7c-3.6-3.6-5.5-8.4-5.5-13.7c0-5.1,1.7-10.3,5.4-14.2c4-4.2,10-7,19.1-7
		c3.4,0,6.6,0.7,7.6,0.9c1.1,0.2,3,0.7,3.7,0.5c0,2,0.4,5.1,0.9,8.7c-0.2,0.5-1.3,0.5-1.6,0.2c-1.7-6.5-6.2-8.5-12.3-8.5
		c-11.7,0-16.8,8.3-16.8,17.3c0,11.6,6,20.6,18,20.6c3.7,0,6-0.8,6.6-1.8c0.3-0.4,0.6-1.5,0.6-3.4v-2.4c0-5-0.2-5.4-3.9-5.8
		l-2.7-0.3c-0.5-0.2-0.4-1.3,0-1.5c1.7,0.1,5.1,0.2,8.6,0.2c2.3,0,4.4-0.1,6.4-0.2c0.4,0.2,0.5,1.1,0.1,1.5l-1,0.1
		c-2.5,0.3-2.6,2-2.6,5.1V357.1L694.6,357.1z"/>
	<path class="st3" d="M711.2,332.7c0-6.4-0.1-7.4-3.7-7.7l-1.5-0.1c-0.4-0.2-0.2-1.3,0.1-1.5c3,0.1,5.1,0.2,7.6,0.2
		c2.4,0,4.4-0.1,7.5-0.2c0.4,0.2,0.5,1.3,0.1,1.5l-1.5,0.1c-3.5,0.3-3.7,1.3-3.7,7.7v21.4c0,6.4,0.1,7.2,3.7,7.6l1.5,0.2
		c0.4,0.2,0.2,1.3-0.1,1.5c-3-0.1-5.1-0.2-7.5-0.2c-2.5,0-4.6,0.1-7.6,0.2c-0.4-0.2-0.5-1.1-0.1-1.5l1.5-0.2
		c3.6-0.4,3.7-1.3,3.7-7.6V332.7L711.2,332.7z"/>
	<path class="st3" d="M766.8,353c0,1.8,0,9,0.2,10.5c-0.1,0.4-0.5,0.7-1.1,0.7c-0.7-1-2.5-3.1-7.7-9.1l-13.9-15.9
		c-1.6-1.9-5.7-6.8-7-8.1h-0.1c-0.2,0.7-0.3,2.1-0.3,3.9v13.1c0,2.8,0.1,10.6,1.1,12.5c0.4,0.7,1.6,1,3.1,1.1l1.9,0.2
		c0.4,0.5,0.3,1.2-0.1,1.5c-2.7-0.1-4.8-0.2-7-0.2c-2.5,0-4.2,0.1-6.3,0.2c-0.4-0.3-0.5-1.1-0.1-1.5l1.6-0.2
		c1.4-0.2,2.3-0.5,2.6-1.2c0.8-2.2,0.8-9.5,0.8-12.4v-17.4c0-1.7-0.1-2.9-1.3-4.3c-0.8-0.8-2.3-1.3-3.7-1.4l-1-0.1
		c-0.4-0.4-0.4-1.3,0.1-1.5c2.5,0.2,5.7,0.2,6.8,0.2c1,0,2-0.1,2.8-0.2c1.2,3.1,8.3,11,10.3,13.2l5.8,6.6c4.2,4.6,7.1,8,9.9,10.9
		h0.1c0.2-0.3,0.2-1.3,0.2-2.5v-12.9c0-2.8-0.1-10.6-1.2-12.4c-0.4-0.5-1.3-0.9-3.7-1.2l-1-0.1c-0.4-0.4-0.4-1.3,0.1-1.5
		c2.8,0.1,4.8,0.2,7.1,0.2c2.6,0,4.1-0.1,6.2-0.2c0.5,0.3,0.5,1.1,0.1,1.5l-0.8,0.1c-1.9,0.3-3.1,0.8-3.4,1.3
		c-1,2.2-0.9,9.6-0.9,12.4V353L766.8,353z"/>
	<path class="st3" d="M784.6,332.5c0-6.3-0.1-7.2-3.7-7.6l-1-0.1c-0.4-0.2-0.2-1.3,0.1-1.5c2.6,0.1,4.6,0.2,7.1,0.2h11.3
		c3.8,0,7.4,0,8.1-0.2c0.4,1,0.7,5.4,1,8c-0.2,0.4-1.2,0.5-1.5,0.1c-0.9-2.8-1.4-4.9-4.6-5.7c-1.3-0.3-3.2-0.4-5.8-0.4h-4.3
		c-1.8,0-1.8,0.1-1.8,2.4v12c0,1.7,0.2,1.7,2,1.7h3.5c2.5,0,4.4-0.1,5.1-0.4c0.7-0.2,1.1-0.6,1.4-2.1l0.5-2.5
		c0.3-0.4,1.3-0.4,1.6,0.1c0,1.4-0.2,3.8-0.2,6.1c0,2.2,0.2,4.5,0.2,5.8c-0.2,0.4-1.3,0.4-1.6,0.1l-0.5-2.3c-0.2-1.1-0.7-2-1.9-2.3
		c-0.8-0.2-2.3-0.3-4.6-0.3h-3.5c-1.8,0-2,0.1-2,1.6v8.5c0,3.2,0.2,5.2,1.1,6.2c0.7,0.7,2,1.4,7.3,1.4c4.6,0,6.4-0.2,7.7-0.9
		c1.1-0.6,2.7-2.7,4.3-5.8c0.4-0.3,1.3-0.1,1.5,0.4c-0.4,2.1-1.9,6.7-2.7,8.4c-5.4-0.1-10.8-0.2-16.1-0.2h-5.4
		c-2.6,0-4.6,0.1-8.2,0.2c-0.4-0.2-0.5-1.1-0.1-1.5l2-0.2c3.4-0.3,3.7-1.2,3.7-7.5V332.5L784.6,332.5z"/>
	<path class="st3" d="M822.7,332.5c0-6.3-0.1-7.2-3.7-7.6l-1-0.1c-0.4-0.2-0.2-1.3,0.1-1.5c2.6,0.1,4.6,0.2,7.1,0.2h11.3
		c3.8,0,7.4,0,8.1-0.2c0.4,1,0.7,5.4,1,8c-0.2,0.4-1.2,0.5-1.5,0.1c-0.9-2.8-1.4-4.9-4.6-5.7c-1.3-0.3-3.2-0.4-5.8-0.4h-4.3
		c-1.8,0-1.8,0.1-1.8,2.4v12c0,1.7,0.2,1.7,2,1.7h3.5c2.5,0,4.4-0.1,5.1-0.4c0.7-0.2,1.1-0.6,1.4-2.1l0.5-2.5
		c0.3-0.4,1.3-0.4,1.6,0.1c0,1.4-0.2,3.8-0.2,6.1c0,2.2,0.2,4.5,0.2,5.8c-0.2,0.4-1.3,0.4-1.6,0.1l-0.5-2.3c-0.2-1.1-0.7-2-1.9-2.3
		c-0.8-0.2-2.3-0.3-4.6-0.3h-3.5c-1.8,0-2,0.1-2,1.6v8.5c0,3.2,0.2,5.2,1.1,6.2c0.7,0.7,2,1.4,7.3,1.4c4.6,0,6.4-0.2,7.7-0.9
		c1.1-0.6,2.7-2.7,4.3-5.8c0.4-0.3,1.3-0.1,1.5,0.4c-0.4,2.1-1.9,6.7-2.7,8.4c-5.4-0.1-10.8-0.2-16.1-0.2h-5.4
		c-2.6,0-4.6,0.1-8.2,0.2c-0.4-0.2-0.5-1.1-0.1-1.5l2-0.2c3.4-0.3,3.7-1.2,3.7-7.5V332.5L822.7,332.5z"/>
	<path class="st3" d="M865.7,341.2c0,1.1,0,1.7,0.2,2c0.2,0.2,1.1,0.3,4.1,0.3c2.2,0,4.5-0.2,6.2-1.6c1.6-1.3,3-3.4,3-7.5
		c0-4.8-3-9.3-9.6-9.3c-3.7,0-3.9,0.2-3.9,1.9V341.2L865.7,341.2z M860.8,332.6c0-5.7-0.2-6.7-2.7-7l-1.9-0.2
		c-0.4-0.3-0.4-1.3,0.1-1.5c3.4-0.3,7.5-0.5,13.4-0.5c3.7,0,7.3,0.3,10,1.8c2.9,1.5,5,4.2,5,8.4c0,5.7-4.5,8.8-7.5,10
		c-0.3,0.4,0,1,0.3,1.4c4.8,7.8,8,12.6,12.1,16c1,0.9,2.5,1.6,4.2,1.7c0.3,0.1,0.4,0.6,0.1,0.8c-0.5,0.2-1.5,0.3-2.7,0.3
		c-5.1,0-8.2-1.5-12.4-7.6c-1.6-2.2-4-6.4-5.9-9.1c-0.9-1.3-1.9-1.9-4.3-1.9c-2.7,0-2.8,0.1-2.8,1.3v7.6c0,6.3,0.1,7,3.6,7.5
		l1.3,0.2c0.4,0.3,0.2,1.3-0.1,1.5c-2.7-0.1-4.7-0.2-7.2-0.2c-2.5,0-4.7,0.1-7.5,0.2c-0.4-0.2-0.5-1.1-0.1-1.5l1.5-0.2
		c3.5-0.4,3.6-1.2,3.6-7.5V332.6L860.8,332.6z"/>
	<path class="st3" d="M902.6,332.7c0-6.4-0.1-7.4-3.7-7.7l-1.5-0.1c-0.4-0.2-0.2-1.3,0.1-1.5c3,0.1,5,0.2,7.6,0.2
		c2.4,0,4.5-0.1,7.5-0.2c0.4,0.2,0.5,1.3,0.1,1.5l-1.5,0.1c-3.5,0.3-3.7,1.3-3.7,7.7v21.4c0,6.4,0.1,7.2,3.7,7.6l1.5,0.2
		c0.4,0.2,0.2,1.3-0.1,1.5c-3-0.1-5.1-0.2-7.5-0.2c-2.5,0-4.6,0.1-7.6,0.2c-0.4-0.2-0.5-1.1-0.1-1.5l1.5-0.2
		c3.5-0.4,3.7-1.3,3.7-7.6V332.7L902.6,332.7z"/>
	<path class="st3" d="M958.3,353c0,1.8,0,9,0.2,10.5c-0.1,0.4-0.5,0.7-1.1,0.7c-0.7-1-2.5-3.1-7.7-9.1l-14-15.9
		c-1.6-1.9-5.7-6.8-7-8.1h-0.1c-0.2,0.7-0.3,2.1-0.3,3.9v13.1c0,2.8,0.1,10.6,1.1,12.5c0.4,0.7,1.6,1,3.1,1.1l1.9,0.2
		c0.4,0.5,0.3,1.2-0.1,1.5c-2.7-0.1-4.8-0.2-7-0.2c-2.5,0-4.2,0.1-6.3,0.2c-0.4-0.3-0.5-1.1-0.1-1.5l1.6-0.2
		c1.4-0.2,2.3-0.5,2.6-1.2c0.8-2.2,0.8-9.5,0.8-12.4v-17.4c0-1.7-0.1-2.9-1.3-4.3c-0.8-0.8-2.3-1.3-3.7-1.4l-1-0.1
		c-0.4-0.4-0.4-1.3,0.1-1.5c2.5,0.2,5.7,0.2,6.8,0.2c1,0,2-0.1,2.8-0.2c1.2,3.1,8.3,11,10.3,13.2l5.8,6.6c4.2,4.6,7.1,8,9.9,10.9
		h0.1c0.2-0.3,0.2-1.3,0.2-2.5v-12.9c0-2.8-0.1-10.6-1.2-12.4c-0.4-0.5-1.3-0.9-3.7-1.2l-1-0.1c-0.4-0.4-0.4-1.3,0.1-1.5
		c2.8,0.1,4.8,0.2,7.1,0.2c2.6,0,4.2-0.1,6.2-0.2c0.5,0.3,0.5,1.1,0.1,1.5l-0.8,0.1c-1.9,0.3-3.1,0.8-3.4,1.3
		c-1,2.2-0.9,9.6-0.9,12.4V353L958.3,353z"/>
	<path class="st3" d="M1004.1,357.1c0,2.4,0.4,3.9,1.4,4.3c0.2,0.2,0.2,0.5-0.1,0.7c-0.7,0-1.8,0.2-2.9,0.5
		c-3.2,0.8-7.5,1.6-10.8,1.6c-7.2,0-13.7-2-18.3-6.7c-3.6-3.6-5.5-8.4-5.5-13.7c0-5.1,1.7-10.3,5.4-14.2c4-4.2,10-7,19.1-7
		c3.4,0,6.6,0.7,7.6,0.9c1.1,0.2,3,0.7,3.7,0.5c0,2,0.4,5.1,0.9,8.7c-0.2,0.5-1.3,0.5-1.6,0.2c-1.7-6.5-6.2-8.5-12.3-8.5
		c-11.7,0-16.8,8.3-16.8,17.3c0,11.6,6,20.6,18,20.6c3.7,0,6-0.8,6.6-1.8c0.3-0.4,0.6-1.5,0.6-3.4v-2.4c0-5-0.2-5.4-3.9-5.8
		l-2.7-0.3c-0.5-0.2-0.4-1.3,0-1.5c1.7,0.1,5.1,0.2,8.6,0.2c2.3,0,4.4-0.1,6.4-0.2c0.4,0.2,0.5,1.1,0.1,1.5l-1,0.1
		c-2.5,0.3-2.6,2-2.6,5.1V357.1L1004.1,357.1z"/>
	<g>
		<defs>
			<polygon id="SVGID_00000067227683820509037850000009894186708427996554_" points="319.6,233.8 1192.3,233.8 1192.3,114.6 
				319.6,114.6 319.6,233.8 			"/>
		</defs>
		<clipPath id="SVGID_00000151537094095371286250000000199979114563334562_">
			<use xlink:href="#SVGID_00000067227683820509037850000009894186708427996554_"  style="overflow:visible;"/>
		</clipPath>
		<path style="clip-path:url(#SVGID_00000151537094095371286250000000199979114563334562_);fill:#002D72;" d="M344.5,136
			c0-15.3-1.4-17-9.5-17.7l-3.4-0.3c-0.8-0.6-0.6-3,0.3-3.4c8,0.3,12.7,0.4,18.5,0.4c5.5,0,10.2-0.1,15.7-0.4
			c0.8,0.4,1.1,2.9,0.3,3.4l-2.1,0.3c-8.1,1.1-8.4,3-8.4,17.7v51.2c0,10.9-0.6,20.4-3.2,26.7c-4.6,11-14.3,19.9-27.2,19.9
			c-1.6,0-5.9-0.1-5.9-2.9c0-2.3,2.1-6.4,5-6.4c1.7,0,3.3,0.3,5.1,0.8c1.9,0.5,3.9,1,5.8,1c2.9,0,4.6-1.7,5.5-3.6
			c3.2-6.5,3.6-27.2,3.6-34.6V136L344.5,136z"/>
	</g>
	<path class="st3" d="M436.2,171c0-19.2-8.5-39.9-30.7-39.9c-12.1,0-27.8,8.3-27.8,33.7c0,17.2,8.4,39.6,31.3,39.6
		C423,204.4,436.2,193.9,436.2,171 M366.1,168.5c0-23.3,17.5-41.1,41.4-41.1c26.9,0,40.4,19.4,40.4,39.9c0,23.5-17.9,40.6-40.4,40.6
		C381.6,207.9,366.1,189.5,366.1,168.5"/>
	<path class="st3" d="M474.3,168.5c-5.6,0-5.8,0.2-5.8,3.7v16.4c0,12.2,0.6,13.8,7.1,14.5l3.4,0.4c0.7,0.5,0.5,2.6-0.2,2.9
		c-6.3-0.2-10.2-0.3-14.8-0.3c-5,0-9,0.2-13.5,0.3c-0.7-0.3-0.9-2.2-0.2-2.9l2-0.4c6.5-1.2,6.7-2.3,6.7-14.5v-41.9
		c0-12.2-0.8-14.2-6.9-14.7l-3-0.2c-0.7-0.5-0.5-2.6,0.2-2.9c5.7,0.1,9.7,0.3,14.7,0.3c4.5,0,8.5-0.1,13.5-0.3
		c0.7,0.3,0.9,2.4,0.2,2.9l-2.2,0.2c-6.7,0.7-7,2.4-7,14.7v13.4c0,3.6,0.2,3.7,5.8,3.7h33.3c5.6,0,5.8-0.1,5.8-3.7v-13.4
		c0-12.2-0.2-14-7.1-14.7l-2.2-0.2c-0.7-0.5-0.5-2.6,0.2-2.9c5.4,0.2,9.3,0.3,14.1,0.3c4.5,0,8.5-0.1,13.7-0.3
		c0.7,0.3,0.9,2.4,0.2,2.9l-2.4,0.2c-6.7,0.7-7,2.4-7,14.7v41.9c0,12.2,0.2,13.7,7,14.5l2.8,0.4c0.7,0.5,0.5,2.6-0.2,2.9
		c-5.6-0.2-9.5-0.3-14.1-0.3c-4.8,0-9,0.1-14.1,0.3c-0.7-0.3-0.9-2.2-0.2-2.9l2.2-0.4c7.1-1.2,7.1-2.3,7.1-14.5v-16.4
		c0-3.5-0.2-3.7-5.8-3.7H474.3L474.3,168.5z"/>
	<path class="st3" d="M612.2,186.3c0,3.5,0,17.3,0.3,20.4c-0.2,0.7-0.9,1.3-2.2,1.3c-1.4-2-4.8-6-14.9-17.6l-27-30.7
		c-3.1-3.6-11.1-13.1-13.5-15.7h-0.2c-0.5,1.4-0.6,4.1-0.6,7.6v25.4c0,5.5,0.1,20.6,2.1,24.1c0.7,1.3,3,2,5.9,2.2l3.6,0.4
		c0.7,0.9,0.6,2.3-0.2,2.9c-5.2-0.2-9.3-0.3-13.6-0.3c-4.9,0-8,0.1-12.1,0.3c-0.8-0.6-0.9-2.2-0.2-2.9l3.1-0.4
		c2.7-0.3,4.5-1,5.1-2.3c1.6-4.2,1.5-18.4,1.5-24v-33.6c0-3.3-0.1-5.7-2.6-8.4c-1.6-1.6-4.4-2.4-7.2-2.8l-2-0.2
		c-0.7-0.7-0.7-2.4,0.2-2.9c4.9,0.3,11.1,0.3,13.1,0.3c1.9,0,3.8-0.1,5.3-0.3c2.3,5.9,16.1,21.3,19.9,25.6l11.3,12.7
		c8,9,13.7,15.5,19.2,21.1h0.2c0.5-0.6,0.5-2.4,0.5-4.9v-24.9c0-5.5-0.1-20.6-2.3-24.1c-0.7-1-2.6-1.7-7.2-2.3l-2-0.2
		c-0.8-0.7-0.7-2.6,0.2-2.9c5.4,0.2,9.3,0.3,13.7,0.3c5,0,8-0.1,12-0.3c0.9,0.6,0.9,2.2,0.2,2.9l-1.6,0.2c-3.7,0.6-6.1,1.5-6.5,2.4
		c-2,4.2-1.7,18.6-1.7,24V186.3L612.2,186.3z"/>
	<path class="st3" d="M642.9,207.9c-9.8,0-15.9-3-18.2-4.3c-1.4-2.6-2.9-10.8-3.1-16.3c0.6-0.8,2.3-1.1,2.8-0.3
		c1.7,5.9,6.5,17.3,20,17.3c9.8,0,14.6-6.4,14.6-13.4c0-5.1-1-10.8-9.5-16.3l-11.1-7.2c-5.8-3.8-12.6-10.5-12.6-20
		c0-11.1,8.6-20,23.7-20c3.6,0,7.8,0.7,10.8,1.5c1.5,0.5,3.1,0.7,4.1,0.7c1,2.8,2.1,9.3,2.1,14.2c-0.5,0.7-2.3,1-2.9,0.4
		c-1.5-5.6-4.6-13.2-15.8-13.2c-11.4,0-13.8,7.6-13.8,12.9c0,6.7,5.6,11.6,9.9,14.3l9.3,5.8c7.3,4.5,14.5,11.3,14.5,22.3
		C667.7,199.2,658.1,207.9,642.9,207.9"/>
	<path class="st3" d="M736.8,161.5c-6.6,0-6.9,0.3-6.9,4.4v19.5c0,14.5,0.7,16.4,8.4,17.2l4,0.4c0.8,0.5,0.6,3-0.3,3.4
		c-7.4-0.3-12.1-0.4-17.5-0.4c-5.9,0-10.6,0.3-16,0.4c-0.8-0.4-1.1-2.6-0.3-3.4l2.3-0.4c7.7-1.4,8-2.8,8-17.2v-49.7
		c0-14.5-1-16.8-8.1-17.4l-3.6-0.3c-0.8-0.5-0.6-3,0.3-3.4c6.8,0.1,11.4,0.4,17.4,0.4c5.4,0,10.1-0.1,16-0.4
		c0.8,0.4,1.1,2.9,0.3,3.4l-2.6,0.3c-8,0.8-8.3,2.9-8.3,17.4v15.9c0,4.3,0.3,4.4,6.9,4.4h39.5c6.6,0,6.9-0.1,6.9-4.4v-15.9
		c0-14.5-0.3-16.5-8.4-17.4l-2.6-0.3c-0.8-0.5-0.5-3,0.3-3.4c6.3,0.3,11,0.4,16.7,0.4c5.4,0,10.1-0.1,16.3-0.4
		c0.8,0.4,1.1,2.9,0.3,3.4l-2.9,0.3c-8,0.8-8.3,2.9-8.3,17.4v49.7c0,14.5,0.3,16.3,8.3,17.2l3.3,0.4c0.8,0.5,0.6,3-0.3,3.4
		c-6.6-0.3-11.3-0.4-16.7-0.4c-5.7,0-10.6,0.1-16.7,0.4c-0.8-0.4-1.1-2.6-0.3-3.4l2.6-0.4c8.4-1.4,8.4-2.8,8.4-17.2v-19.5
		c0-4.1-0.3-4.4-6.9-4.4H736.8L736.8,161.5z"/>
	<path class="st3" d="M875.3,171c0-19.2-8.5-39.9-30.7-39.9c-12.1,0-27.8,8.3-27.8,33.7c0,17.2,8.4,39.6,31.3,39.6
		C862.1,204.4,875.3,193.9,875.3,171 M805.2,168.5c0-23.3,17.5-41.1,41.4-41.1c26.9,0,40.4,19.4,40.4,39.9
		c0,23.5-17.9,40.6-40.4,40.6C820.8,207.9,805.2,189.5,805.2,168.5"/>
	<path class="st3" d="M908,188.6c0,12.2,0.2,13.7,7.7,14.5l3.1,0.3c0.7,0.6,0.5,2.6-0.2,2.9c-6.6-0.2-10.5-0.3-15.1-0.3
		c-4.9,0-9.1,0.1-14.2,0.3c-0.7-0.3-0.9-2.2-0.2-2.9l2.4-0.3c6.7-0.9,7-2.3,7-14.5v-42.9c0-9.9-0.2-11.9-5.5-12.5l-4.2-0.5
		c-0.8-0.7-0.7-2.4,0.2-2.9c6.2-0.8,13.4-0.9,23-0.9c9.7,0,16.9,1.3,22.3,4.7c5.4,3.4,9.3,9.4,9.3,17.4c0,10.7-6.6,16.1-11.6,18.5
		C927,172,920.8,173,916,173c-0.8-0.3-0.8-2.1-0.1-2.3c12.6-2.3,17.1-9.4,17.1-19.6c0-11.3-6.6-18.6-18.7-18.6
		c-6.2,0-6.3,0.5-6.3,4.2V188.6L908,188.6z"/>
	<path class="st3" d="M956.4,146.7c0-12.2-0.2-14.1-7-14.7l-2.9-0.2c-0.7-0.5-0.5-2.6,0.2-2.9c5.7,0.2,9.4,0.3,14.7,0.3
		c4.5,0,8.5-0.1,13.5-0.3c0.7,0.3,0.9,2.4,0.2,2.9l-2.2,0.2c-6.7,0.7-7,2.4-7,14.7v13.4c0,2.2,0.2,4.4,1.5,4.4c1,0,2.4-0.7,3.3-1.3
		c1.6-1.4,4.6-4.4,5.9-5.6l12.6-12.4c2.2-2.1,7.9-8,9.1-9.7c0.6-0.8,0.8-1.4,0.8-1.9c0-0.5-0.5-0.8-2-1.2l-3.1-0.7
		c-0.8-0.8-0.7-2.3,0.2-2.9c4.1,0.2,8.7,0.3,12.8,0.3c4.1,0,8-0.1,11.5-0.3c0.8,0.6,0.9,2.2,0.2,2.9c-3,0.2-7.6,1.4-10.8,3.3
		c-3.3,1.9-9.8,7.3-16.3,13.5l-10.5,9.9c-1.6,1.6-2.7,2.7-2.7,3.6c0,0.8,0.7,1.8,2.2,3.6c11,12.7,20,23.2,29.1,32.7
		c2.8,2.8,4.9,4.3,8.9,4.8l2.2,0.3c0.8,0.6,0.6,2.6-0.2,2.9c-3-0.2-6.2-0.4-11.7-0.4c-4.8,0-8.9,0.1-14.2,0.4
		c-0.8-0.2-1.2-2.2-0.5-2.9l2.7-0.5c1.6-0.2,2.8-0.6,2.8-1.2c0-0.7-0.8-1.6-1.6-2.7c-2.2-2.8-5.2-5.9-9.6-10.9l-9.3-10.5
		c-6.6-7.4-8.5-9.8-11.3-9.8c-1.7,0-2,1.5-2,5.6v15c0,12.2,0.2,13.8,6.7,14.5l3.1,0.3c0.7,0.5,0.5,2.6-0.2,2.9
		c-5.7-0.2-9.7-0.4-14.2-0.4c-4.8,0-8.7,0.1-13.5,0.4c-0.7-0.4-0.9-2.1-0.2-2.9l2.3-0.3c6.2-0.9,6.4-2.3,6.4-14.5V146.7L956.4,146.7
		z"/>
	<path class="st3" d="M1036.3,147c0-12.3-0.2-14.3-7.1-14.9l-2.9-0.2c-0.7-0.5-0.5-2.6,0.2-2.9c5.8,0.2,9.8,0.4,14.7,0.4
		c4.7,0,8.6-0.1,14.4-0.4c0.7,0.4,0.9,2.4,0.2,2.9l-2.9,0.2c-6.9,0.6-7.1,2.6-7.1,14.9v41.4c0,12.3,0.2,14,7.1,14.8l2.9,0.3
		c0.7,0.5,0.5,2.6-0.2,2.9c-5.8-0.2-9.8-0.4-14.4-0.4c-4.9,0-8.4,0.1-14.2,0.4c-0.7-0.4-0.9-2.2-0.2-2.9l2.5-0.3
		c6.9-0.8,7.1-2.4,7.1-14.8V147L1036.3,147z"/>
	<path class="st3" d="M1137,186.3c0,3.5,0,17.3,0.4,20.4c-0.2,0.7-0.9,1.3-2.2,1.3c-1.4-2-4.8-6-14.9-17.6l-27-30.7
		c-3.1-3.6-11.1-13.1-13.5-15.7h-0.2c-0.5,1.4-0.6,4.1-0.6,7.6v25.4c0,5.5,0.1,20.6,2.1,24.1c0.7,1.3,3,2,5.9,2.2l3.6,0.4
		c0.7,0.9,0.6,2.3-0.2,2.9c-5.2-0.2-9.3-0.3-13.6-0.3c-4.9,0-8,0.1-12.1,0.3c-0.8-0.6-0.9-2.2-0.2-2.9l3.1-0.4
		c2.7-0.3,4.5-1,5.1-2.3c1.6-4.2,1.5-18.4,1.5-24v-33.6c0-3.3-0.1-5.7-2.6-8.4c-1.6-1.6-4.4-2.4-7.2-2.8l-2-0.2
		c-0.7-0.7-0.7-2.4,0.2-2.9c4.9,0.3,11,0.3,13.1,0.3c1.9,0,3.8-0.1,5.4-0.3c2.3,5.9,16.1,21.3,19.9,25.6l11.3,12.7
		c8,9,13.7,15.5,19.2,21.1h0.2c0.5-0.6,0.5-2.4,0.5-4.9v-24.9c0-5.5-0.1-20.6-2.3-24.1c-0.7-1-2.6-1.7-7.2-2.3l-2-0.2
		c-0.8-0.7-0.7-2.6,0.2-2.9c5.4,0.2,9.3,0.3,13.7,0.3c5,0,8-0.1,12-0.3c0.9,0.6,0.9,2.2,0.2,2.9l-1.6,0.2c-3.7,0.6-6.1,1.5-6.5,2.4
		c-2,4.2-1.7,18.6-1.7,24V186.3L1137,186.3z"/>
	<path class="st3" d="M1167.5,207.9c-9.8,0-15.9-3-18.2-4.3c-1.4-2.6-2.9-10.8-3.1-16.3c0.6-0.8,2.3-1.1,2.8-0.3
		c1.7,5.9,6.5,17.3,20,17.3c9.8,0,14.5-6.4,14.5-13.4c0-5.1-1.1-10.8-9.5-16.3l-11-7.2c-5.8-3.8-12.6-10.5-12.6-20
		c0-11.1,8.6-20,23.7-20c3.6,0,7.8,0.7,10.8,1.5c1.5,0.5,3.1,0.7,4.1,0.7c1.1,2.8,2.1,9.3,2.1,14.2c-0.5,0.7-2.3,1-2.9,0.4
		c-1.5-5.6-4.6-13.2-15.8-13.2c-11.4,0-13.9,7.6-13.9,12.9c0,6.7,5.6,11.6,9.9,14.3l9.3,5.8c7.3,4.5,14.5,11.3,14.5,22.3
		C1192.3,199.2,1182.6,207.9,1167.5,207.9"/>
</g>
</svg>
