<?xml version="1.0" encoding="UTF-8" standalone="no"?>
<!-- Created with Inkscape (http://www.inkscape.org/) -->

<svg
   version="1.1"
   id="svg1"
   width="235.43004"
   height="40.41066"
   viewBox="0 0 235.43004 40.410659"
   xmlns="http://www.w3.org/2000/svg"
   xmlns:svg="http://www.w3.org/2000/svg">
  <defs
     id="defs1" />
  <g
     id="g1"
     transform="translate(-0.00115786,-0.00126005)">
    <path
       id="path1"
       d="M 18.5,3.508 C 18.309,3.77 17.949,3.824 17.691,3.637 17.438,3.449 17.379,3.09 17.566,2.832 18.02,2.207 18.434,1.652 18.453,1.531 l 0.008,0.219 c -0.012,-0.055 0.086,0.07 0.031,0.012 -0.07,-0.071 0.328,0.125 0.27,0.125 C 18.676,1.883 18.59,1.867 18.508,1.836 L 18.359,1.863 17.664,2.07 c -1.293,0.45 -3.25,1.926 -5.289,3.504 -1.391,1.055 -2.738,2.164 -3.871,3.203 -1.535,1.383 -2.492,2.621 -2.797,3.387 -0.102,0.258 -0.062,0.313 -0.055,0.324 0.016,0.024 0.114,0.141 0.426,0.246 0.754,0.258 2.297,0.25 4.07,0.036 1.59,-0.204 3.309,-0.563 4.786,-0.883 l 2.125,-0.453 0.621,-0.164 0.254,-0.075 0.234,-0.035 0.355,0.055 c 0.317,0.113 0.676,0.676 0.645,1.015 -0.027,0.305 -0.137,0.426 -0.195,0.504 -0.539,0.594 -0.895,0.575 -1.352,0.739 l -1.625,0.632 c -1.223,0.532 -2.711,1.364 -4.305,2.356 -1.558,0.973 -3.152,2.172 -4.671,3.469 -1.977,1.679 -3.7,3.519 -4.586,4.898 -0.352,0.547 -0.364,0.867 -0.317,1.027 0.031,0.098 0.184,0.313 0.602,0.547 0.457,0.262 1.136,0.5 1.957,0.703 1.769,0.446 4.012,0.743 6.414,0.852 1.504,0.078 2.957,0.246 4.363,0.188 1.422,-0.067 2.887,-0.438 4.301,-0.864 2.113,-0.629 3.898,-1.691 5.266,-2.851 1.492,-1.274 2.359,-2.77 2.722,-4.032 0.324,-1.187 -0.023,-2.14 -0.472,-2.753 L 26.691,17.18 c -0.203,-0.164 -0.347,-0.227 -0.574,-0.547 -0.07,-0.098 -0.152,-0.227 -0.203,-0.453 -0.086,-0.383 0.172,-1.012 0.488,-1.227 0.278,-0.191 0.457,-0.195 0.586,-0.215 0.907,-0.097 1.883,0.125 3.086,0.258 1.207,0.145 2.586,0.207 3.832,0.379 0.785,0.105 1.492,0.254 2.106,0.563 0.609,0.304 1.172,0.917 1.23,1.667 0.149,1.247 -0.758,2.168 -1.551,3.114 -0.554,0.691 -1.23,1.254 -1.757,1.777 -1.012,1.024 -1.391,2.109 -1.387,2.168 0.004,0.082 -0.059,-0.168 -0.027,-0.09 0.046,0.125 -0.336,-0.367 -0.25,-0.312 0.074,0.043 -0.086,-0.035 -0.024,-0.028 0.566,0.106 2.316,-0.257 4.125,-0.886 2.652,-0.875 5.504,-2.328 8.059,-3.301 1.726,-0.731 3.109,-1.192 3.816,-1.336 l -0.281,0.117 c 0.023,-0.016 -0.149,0.133 -0.098,0.082 0.024,-0.027 -0.137,0.184 -0.097,0.121 0.019,-0.027 -0.086,0.184 -0.063,0.129 0.023,-0.058 -0.074,0.422 -0.062,0.27 0.031,-0.481 0.449,-0.852 0.933,-0.825 0.488,0.036 0.856,0.454 0.828,0.942 -0.035,0.484 -0.453,0.855 -0.941,0.824 -0.281,-0.019 -0.539,-0.172 -0.688,-0.414 -0.082,-0.125 0.227,0.25 0.184,0.211 -0.074,-0.063 0.199,0.121 0.16,0.102 -0.055,-0.024 0.109,0.042 0.094,0.039 l 0.012,0.003 0.3,0.012 c -0.418,0.063 -1.836,0.485 -3.527,1.18 -2.352,1.074 -5.145,2.68 -7.91,3.777 -1.922,0.723 -3.656,1.352 -5.156,1.153 -0.403,-0.067 -0.805,-0.2 -1.133,-0.536 -0.328,-0.339 -0.457,-0.828 -0.446,-1.199 0.102,-1.281 0.938,-2.406 2.247,-3.601 0.613,-0.563 1.253,-1.063 1.695,-1.567 0.73,-0.863 1.152,-1.711 1.148,-1.765 0,0.011 0.024,-0.008 -0.234,-0.118 -0.309,-0.132 -0.848,-0.242 -1.535,-0.312 l -3.797,-0.184 -2.567,-0.179 c -0.046,0.007 0.329,-0.121 0.211,-0.067 -0.054,0.024 0.27,-0.172 0.196,-0.117 -0.071,0.055 0.293,-0.32 0.219,-0.223 -0.067,0.09 0.203,-0.457 0.167,-0.336 -0.031,0.118 0.043,-0.441 0.043,-0.335 0.004,0.097 -0.054,-0.329 -0.035,-0.258 0.039,0.129 -0.156,-0.336 -0.121,-0.278 0.059,0.098 -0.133,-0.168 -0.113,-0.152 l 0.172,0.137 c 0.211,0.179 0.668,0.484 1.035,1.039 0.723,1.07 1.223,2.754 0.668,4.601 -0.473,1.664 -1.563,3.504 -3.359,5.055 -1.559,1.348 -3.586,2.574 -6.008,3.316 -1.5,0.45 -3.133,0.872 -4.844,0.938 -1.609,0.07 -3.137,-0.109 -4.559,-0.18 C 8.465,29.977 6.102,29.645 4.156,29.141 2.324,28.676 0.586,28.07 0.105,26.449 -0.156,25.57 0.09,24.582 0.66,23.688 c 1.07,-1.668 2.883,-3.59 4.981,-5.376 1.593,-1.351 3.269,-2.601 4.945,-3.636 1.648,-1.02 3.199,-1.895 4.559,-2.485 0.714,-0.296 1.347,-0.492 1.835,-0.644 l 0.555,-0.18 0.117,-0.039 c 0.012,-0.008 -0.16,0.117 -0.082,0.055 0.098,-0.071 -0.062,0.055 -0.023,0.015 0.051,-0.039 -0.301,0.414 -0.211,0.258 0.102,-0.172 0.047,1.125 -0.063,0.824 -0.105,-0.281 0.551,0.582 0.418,0.504 -0.121,-0.07 0.344,0.125 0.274,0.11 -0.117,-0.028 0.281,0.023 0.234,0.023 -0.082,0.004 0.153,-0.012 0.133,-0.008 l -0.859,0.211 -2.137,0.43 c -1.477,0.332 -3.242,0.719 -4.941,0.945 C 8.512,14.953 6.812,15.09 5.449,14.664 4.812,14.465 4.199,14.102 3.852,13.488 3.492,12.867 3.508,12.09 3.758,11.414 4.238,10.098 5.375,8.707 7.023,7.18 8.238,6.078 9.648,4.949 11.078,3.871 c 2.106,-1.547 4.106,-3.09 5.961,-3.648 0.781,-0.211 1.504,-0.387 2.211,0.039 0.074,0.047 0.141,0.101 0.199,0.164 0.266,0.301 0.324,0.699 0.281,0.953 -0.042,0.238 -0.128,0.394 -0.21,0.539 l 0.074,-0.207 c -0.117,0.746 -0.68,1.23 -1.098,1.797 m 30.633,15.226 c 0.164,0.129 0.277,0.309 0.336,0.508 0.137,0.508 -0.004,0.555 -0.043,0.653 l -0.094,0.187 c -0.043,0.078 -0.098,0.148 -0.164,0.211 l -1.207,1.203 c -0.379,0.375 -0.562,0.879 -0.562,1.035 -0.008,0.114 -0.079,-0.133 -0.051,-0.082 l 0.074,0.031 c 0.348,0.18 1.129,0.321 2.059,0.293 1.105,-0.027 2.55,-0.546 3.968,-1 l 2.313,-0.73 c 0.488,-0.176 0.867,-0.336 1.289,-0.395 l -0.184,0.047 c 0.157,-0.054 0.387,-0.172 0.782,-0.035 0.425,0.141 0.636,0.543 0.703,0.778 l 0.148,1.23 c 0.066,0.148 -0.117,-0.141 -0.078,-0.102 0.051,0.059 -0.07,-0.054 -0.039,-0.043 l 1.125,0.258 c 0.676,0.129 1.426,0.227 2.293,0.278 l 3.23,0.191 c 1.594,0.066 3.278,0.121 4.696,0.082 1.058,-0.055 1.882,-0.172 2.304,-0.387 0.09,-0.054 0.196,-0.23 0.25,-0.441 L 72.23,22.406 c -0.007,0.008 0.383,0.164 0.325,0.164 -0.082,-0.008 0.148,-0.035 0.129,-0.023 -0.024,0.012 0.164,-0.168 0.109,-0.098 -0.18,0.188 0.082,-0.203 0.07,-0.152 -0.015,0.058 0.004,-0.043 0.012,0 l 0.047,0.207 c 0.062,0.164 1.418,1.191 2.937,1.766 1.215,0.496 2.649,0.671 3.922,0.628 1.731,0.024 3.067,-0.66 3.563,-1.277 0.168,-0.199 0.226,-0.355 0.238,-0.426 -0.008,0.032 0.016,0.235 0.008,0.223 l -0.113,-0.094 c -0.012,-0.004 -0.176,0.008 -0.383,0.09 l -0.133,0.168 c -0.031,0.059 -0.164,-0.355 -0.039,-0.262 0.242,0.192 1.547,0.477 2.976,0.707 0.926,0.149 1.907,0.243 2.872,0.293 1.351,0.168 2.566,0.258 3.578,0.325 0.961,0.066 1.652,0.082 2.105,0.175 0.399,0.078 0.66,0.469 0.574,0.868 -0.043,0.23 -0.195,0.421 -0.406,0.519 -0.508,0.234 -1.223,0.328 -2.223,0.445 -1.054,0.121 -2.328,0.207 -3.687,0.223 -1.125,-0.07 -2.184,-0.176 -3.227,-0.348 -1.394,-0.23 -2.898,-0.261 -4.101,-1.195 -0.457,-0.371 -0.805,-0.887 -0.891,-1.445 -0.082,-0.551 0.07,-1.039 0.262,-1.395 0.289,-0.543 0.758,-1.078 1.512,-1.328 0.714,-0.23 1.574,-0.309 2.379,0.191 0.617,0.36 1.257,1.075 1.187,2.079 0.023,0.492 -0.172,1.082 -0.508,1.609 -1.027,1.516 -3.047,2.516 -5.453,2.594 -1.652,-0.028 -3.402,-0.301 -4.988,-1.043 -0.899,-0.457 -1.727,-0.973 -2.422,-1.555 -0.676,-0.574 -1.289,-1.199 -1.41,-2.09 -0.043,-0.265 -0.051,-0.551 0.011,-0.855 0.063,-0.309 0.215,-0.723 0.672,-0.946 0.368,-0.125 0.614,-0.14 0.883,-0.074 0.274,0.067 0.613,0.281 0.735,0.637 0.14,0.238 0.222,0.687 0.058,1.148 -0.07,0.301 -0.258,0.832 -0.797,1.153 -0.687,0.449 -1.656,0.613 -2.793,0.734 -1.465,0.195 -3.179,0.285 -4.765,0.371 l -3.321,0.078 C 60.742,25.16 59.898,25.078 59.141,24.953 L 57.875,24.68 c -0.453,-0.145 -1.059,-0.352 -1.367,-1.082 -0.32,-0.965 -0.102,-1.688 -0.067,-2.016 0.032,-0.156 0.012,-0.023 0.016,-0.082 0.008,-0.051 0.047,0.355 0.02,0.242 -0.024,-0.086 0.187,0.367 0.125,0.281 -0.094,-0.132 0.41,0.305 0.316,0.262 -0.09,-0.043 0.211,0.051 0.18,0.051 l 0.187,-0.012 -0.984,0.332 -2.231,0.871 c -1.343,0.535 -2.855,1.239 -4.449,1.399 -1.152,0.109 -2.219,0.082 -3.156,-0.285 -0.832,-0.352 -1.543,-1.203 -1.539,-2.133 0.078,-1.074 0.578,-1.973 1.351,-2.68 0.641,-0.531 1.231,-0.93 1.664,-1.172 0.075,-0.039 0.161,-0.07 0.25,-0.097 l 0.286,-0.036 c 0.125,-0.003 0.242,-0.113 0.652,0.211 m 7.473,-8.617 C 56.211,10.324 55.723,10.18 55.512,9.793 55.301,9.398 55.449,8.914 55.84,8.699 55.867,8.688 55.902,8.668 55.934,8.66 c 0.777,-0.301 2.05,-0.348 3.687,-0.527 1.68,-0.184 3.496,-0.387 4.828,-0.684 0.344,-0.074 0.684,0.141 0.758,0.489 0.074,0.335 -0.125,0.664 -0.457,0.753 -2.934,0.77 -7.617,1.137 -8.148,1.422 m 84.816,0.516 c -0.07,0.316 -0.383,0.512 -0.699,0.441 -0.305,-0.07 -0.504,-0.367 -0.446,-0.675 0.09,-0.512 0.098,-0.887 0.043,-1.086 -0.05,-0.168 -0.109,-0.247 -0.378,-0.352 -0.344,-0.113 -0.75,-0.219 -1.297,-0.184 -1.036,0.051 -2.657,0.692 -4.672,1.766 -1.387,0.723 -2.871,1.707 -4.364,2.742 -1.96,1.367 -3.847,2.805 -5.21,4.18 -1.653,1.668 -2.043,3.23 -1.844,4.266 0.086,0.55 0.39,1.043 1.004,1.511 0.644,0.5 1.593,0.938 2.746,1.239 1.437,0.367 3.086,0.562 4.801,0.492 4.293,-0.094 9.242,-2.348 14.015,-5.285 1.977,-1.204 3.914,-2.481 5.68,-3.844 2.219,-1.735 4.117,-3.656 5.519,-5.328 0.782,-0.946 1.313,-1.844 1.676,-2.563 0.262,-0.531 0.274,-0.851 0.258,-0.914 -0.016,-0.012 -0.41,-0.105 -0.996,0.176 -0.442,0.207 -0.945,0.707 -1.383,1.383 -0.34,0.543 -0.578,1.453 -0.91,2.594 l -0.875,2.968 c -1.254,3.61 -3.59,7.391 -5.484,10.465 -0.911,1.402 -1.719,2.527 -2.454,3.414 -0.703,0.848 -1.32,1.473 -1.972,1.875 -0.422,0.242 -0.84,0.383 -1.281,0.379 -0.446,0 -1,-0.187 -1.293,-0.68 -0.336,-0.527 -0.204,-1.16 0.043,-1.621 0.753,-1.316 2.41,-2.121 4.14,-3.144 1.91,-1.223 3.848,-2.223 5.352,-2.707 0.496,-0.172 0.961,-0.293 1.429,-0.27 0.657,-0.019 1.231,0.668 1.356,1.274 0.148,1.101 -0.277,2.109 -0.516,2.961 l -0.32,1.285 c 0.004,0.015 -0.129,-0.117 -0.012,-0.086 0.637,0.23 3.051,-0.27 5.196,-0.711 l 2.894,-0.383 c 0.27,-0.043 0.301,-0.207 0.738,-0.34 0.278,-0.082 0.567,0.071 0.653,0.348 0.05,0.16 0.019,0.34 -0.082,0.473 -0.059,0.074 -0.352,0.558 -0.989,0.785 -0.73,0.265 -1.714,0.484 -2.812,0.789 -2.129,0.476 -4.387,1.363 -6.137,0.789 -0.711,-0.285 -1.14,-1 -1.156,-1.574 -0.063,-0.657 0.191,-1.231 0.371,-1.848 0.277,-0.906 0.57,-1.863 0.535,-2.238 l -0.019,-0.196 0.132,0.094 c -0.082,-0.004 -0.414,0.043 -0.836,0.176 -1.304,0.433 -3.179,1.398 -5.019,2.594 -1.609,1.121 -3.07,2.379 -3.184,2.691 -0.027,0.07 -0.027,-0.078 -0.019,-0.004 0.004,0.043 -0.07,-0.219 -0.043,-0.156 0.031,0.062 -0.18,-0.246 -0.125,-0.192 0.082,0.082 -0.43,-0.203 -0.348,-0.191 0.059,0.016 -0.129,-0.004 -0.109,-0.008 l 0.219,-0.125 c 0.671,-0.472 1.984,-2.097 3.613,-4.722 1.976,-3.024 4.308,-6.672 5.531,-9.907 l 1.055,-2.867 c 0.41,-1.09 0.742,-2.121 1.398,-2.945 0.617,-0.793 1.356,-1.445 2.203,-1.719 1,-0.316 2.243,-0.133 2.504,0.809 0.2,0.433 0.063,1.031 -0.25,1.707 -0.363,0.793 -0.91,1.789 -1.73,2.843 -1.371,1.797 -3.258,3.852 -5.512,5.739 -1.762,1.492 -3.695,2.886 -5.652,4.195 -4.809,3.176 -9.895,5.813 -14.867,6.121 -1.985,0.078 -3.852,-0.148 -5.516,-0.582 -2.738,-0.691 -5.141,-2.164 -5.551,-4.586 -0.262,-2 0.637,-4.269 2.731,-6.238 1.57,-1.481 3.574,-2.902 5.629,-4.25 1.539,-1.02 3.097,-2.012 4.617,-2.758 2.168,-1.051 3.968,-1.73 5.468,-1.691 0.836,0.035 1.461,0.3 1.891,0.531 0.508,0.234 0.914,0.719 1.027,1.25 0.114,0.519 0.028,1.047 -0.105,1.625 m 20.086,16.047 c -0.18,-0.344 -0.047,-0.774 0.301,-0.953 0.054,-0.028 0.117,-0.047 0.175,-0.063 0.555,-0.117 0.813,0.293 0.907,0.465 0.242,0.434 0.207,0.586 0.265,0.637 0.055,0.05 0.102,0.101 0.145,0.16 0.051,0.066 -0.051,-0.043 0.043,-0.004 0.367,0.141 1.301,0.18 2.215,0.094 1.172,-0.071 2.48,-0.563 3.57,-0.953 l 1.125,-0.399 c 0.117,-0.043 0.348,-0.211 0.777,-0.195 l -0.379,0.097 c 0.45,-0.269 0.832,-0.042 1,0.043 l 0.239,0.122 c 0.078,0.019 0.152,0.05 0.218,0.089 0.243,0.137 1.895,0.024 3.579,0.227 0.554,0.07 0.949,0.574 0.882,1.133 -0.07,0.554 -0.574,0.953 -1.132,0.883 -0.008,0 -0.016,0 -0.024,0 -1.324,-0.2 -2.937,0.238 -4.277,-0.586 -0.067,-0.047 -0.125,-0.094 -0.184,-0.153 -0.234,-0.242 -0.34,-0.465 -0.414,-0.609 l -0.062,-0.133 0.015,0.031 c -0.015,-0.031 0.2,0.164 0.129,0.118 l 0.375,0.113 -0.316,0.14 -0.957,0.5 c -1.031,0.504 -2.403,1.204 -3.914,1.442 -0.75,0.09 -1.481,0.125 -2.164,0.058 -0.68,-0.066 -1.407,-0.183 -1.934,-0.851 -0.043,-0.055 -0.082,-0.113 -0.113,-0.18 -0.242,-0.492 -0.211,-0.898 -0.192,-1.195 l 0.028,-0.316 0.004,-0.032 0.004,0.067 c -0.008,-0.043 0.113,0.293 0.066,0.203"
       style="fill:#000000;fill-opacity:1;fill-rule:nonzero;stroke:none"
       transform="scale(1.3333333)" />
  </g>
</svg>
